# xmcd
#
# Track frame offsets:
#	150
#	12611
#	32676
#	43630
#	59088
#	73599
#	83168
#	96054
#	106750
#	121126
#	135525
#	149183
#	167403
#	179995
#	192830
#	212191
#	223909
#	236006
#	252486
#	266616
#	291882
#	307275
#	319183
#
# Disc length: 4393 seconds
#
# Revision: 0
# Processed by: cddbd v1.5.2PL0 Copyright (c) Steve Scherf et al.
# Submitted via: EasyCDDAExtractor 16.1.0.1
#
DISCID=71112717
DTITLE=Chocolate Watchband - Melts In Your Brain... 2/2
DYEAR=2005
DGENRE=
TTITLE0=Chocolate Watchband - Let's Talk About Girls [Don Bennett Vocal]
TTITLE1=Chocolate Watchband - In The Midnight Hour [Don Bennett Vocal]
TTITLE2=Chocolate Watchband - Hot Dusty Roads [Don Bennett Vocal]
TTITLE3=Chocolate Watchband - Gossamer Wings
TTITLE4=Chocolate Watchband - Baby Blue [LP Mix]
TTITLE5=Chocolate Watchband - Medication [Don Bennett Vocal]
TTITLE6=Chocolate Watchband - Don't Let The Sun Catch You Crying
TTITLE7=Chocolate Watchband - Since You Broke My Heart
TTITLE8=Chocolate Watchband - Uncle Morris
TTITLE9=Chocolate Watchband - How Ya Been
TTITLE10=Chocolate Watchband - Devil's Motorcycle
TTITLE11=Chocolate Watchband - I Don't Need No Doctor
TTITLE12=Chocolate Watchband - Flowers
TTITLE13=Chocolate Watchband - Fireface
TTITLE14=Chocolate Watchband - And She's Lonely
TTITLE15=Chocolate Watchband - Dark Side Of The Mushroom
TTITLE16=Chocolate Watchband - Expo 2000
TTITLE17=The Yo-Yoz - Voyage Of The Trieste
TTITLE18=The Yo-Yoz - In The Past
TTITLE19=The Yo-Yoz - The Inner Mystique
TTITLE20=The Yo-Yoz - The Uncharted Sea aka Voyage Of The Trieste
TTITLE21=The Inmates - Let's Go, Let's Go, Let's Go [Backing Track]
TTITLE22=The Inmates - Let's Go, Let's Go, Let's Go [Don Bennett Vocal]
EXTD=
EXTT0=
EXTT1=
EXTT2=
EXTT3=
EXTT4=
EXTT5=
EXTT6=
EXTT7=
EXTT8=
EXTT9=
EXTT10=
EXTT11=
EXTT12=
EXTT13=
EXTT14=
EXTT15=
EXTT16=
EXTT17=
EXTT18=
EXTT19=
EXTT20=
EXTT21=
EXTT22=
PLAYORDER=
